# xmcd CD database file
#
# Track frame offsets:
#	150
#	16365
#	32373
#
# Disc length: 650 seconds
#
# Revision: 0
# Processed by: cddbd v1.4PL0 Copyright (c) Steve Scherf et al.
# Submitted via: CDex 1.40Release
#
DISCID=15028803
DTITLE=The Boomchasers - Demo
DYEAR=2002
DGENRE=Blues
TTITLE0=Head Out
TTITLE1=Without the Sin
TTITLE2=218
EXTD=YEAR: 2002 ID3G: 0
EXTT0=
EXTT1=
EXTT2=
PLAYORDER=
